<svg width="689" height="447" viewBox="0 0 689 447" fill="none" xmlns="http://www.w3.org/2000/svg">
<path d="M43.7438 387.456L43.2143 389.41H33.3184L33.8553 387.456H43.7438ZM38.7697 399L33.5496 392.721L33.5421 391.065H36.1224C36.7388 391.065 37.2534 390.963 37.666 390.76C38.0837 390.551 38.3993 390.26 38.6131 389.887C38.8319 389.509 38.9412 389.067 38.9412 388.56C38.9412 387.799 38.7175 387.187 38.2701 386.725C37.8226 386.263 37.1067 386.032 36.1224 386.032H33.3184L33.9001 383.727H36.1224C37.3752 383.727 38.4118 383.921 39.2321 384.309C40.0574 384.692 40.6738 385.234 41.0815 385.935C41.4942 386.636 41.7005 387.456 41.7005 388.396C41.7005 389.226 41.5488 389.967 41.2456 390.618C40.9423 391.269 40.465 391.804 39.8138 392.221C39.1625 392.639 38.3099 392.917 37.2559 393.056L37.1664 393.086L41.8795 398.866V399H38.7697ZM43.7587 383.727L43.2143 385.711L35.1902 385.681L35.7346 383.727H43.7587ZM52.7341 383.727V399H49.9674V386.419H49.878L46.3059 388.701V386.166L50.1017 383.727H52.7341ZM66.0204 383.727V399H63.3208V383.727H66.0204ZM72.8275 399.231C72.1017 399.231 71.4479 399.102 70.8662 398.843C70.2895 398.58 69.8322 398.192 69.4941 397.68C69.161 397.168 68.9944 396.537 68.9944 395.786C68.9944 395.14 69.1138 394.605 69.3524 394.183C69.591 393.76 69.9167 393.422 70.3293 393.168C70.742 392.915 71.2068 392.723 71.7238 392.594C72.2459 392.46 72.7853 392.363 73.3421 392.303C74.0133 392.234 74.5577 392.172 74.9753 392.117C75.3929 392.057 75.6961 391.968 75.8851 391.848C76.079 391.724 76.1759 391.533 76.1759 391.274V391.229C76.1759 390.668 76.0094 390.233 75.6763 389.924C75.3432 389.616 74.8634 389.462 74.237 389.462C73.5758 389.462 73.0513 389.606 72.6635 389.895C72.2807 390.183 72.0221 390.523 71.8879 390.916L69.3673 390.558C69.5662 389.862 69.8943 389.281 70.3517 388.813C70.8091 388.341 71.3684 387.988 72.0296 387.754C72.6908 387.516 73.4216 387.396 74.2221 387.396C74.7739 387.396 75.3233 387.461 75.8702 387.59C76.417 387.719 76.9167 387.933 77.3691 388.232C77.8215 388.525 78.1844 388.925 78.4579 389.432C78.7363 389.939 78.8755 390.573 78.8755 391.334V399H76.2803V397.426H76.1908C76.0268 397.745 75.7956 398.043 75.4973 398.321C75.204 398.595 74.8336 398.816 74.3861 398.985C73.9437 399.149 73.4241 399.231 72.8275 399.231ZM73.5285 397.248C74.0704 397.248 74.5403 397.141 74.938 396.927C75.3357 396.708 75.6415 396.42 75.8552 396.062C76.074 395.704 76.1834 395.314 76.1834 394.891V393.541C76.0988 393.611 75.9547 393.675 75.7508 393.735C75.552 393.795 75.3282 393.847 75.0797 393.892C74.8311 393.936 74.585 393.976 74.3414 394.011C74.0978 394.046 73.8865 394.076 73.7075 394.1C73.3048 394.155 72.9444 394.245 72.6262 394.369C72.308 394.493 72.0569 394.667 71.873 394.891C71.689 395.11 71.5971 395.393 71.5971 395.741C71.5971 396.238 71.7785 396.614 72.1415 396.867C72.5044 397.121 72.9667 397.248 73.5285 397.248ZM84.7859 395.406L84.7784 392.147H85.211L89.3275 387.545H92.4819L87.4184 393.183H86.8591L84.7859 395.406ZM82.325 399V383.727H85.0245V399H82.325ZM89.5139 399L85.7852 393.787L87.6048 391.886L92.7429 399H89.5139ZM97.7156 392.288V399H95.016V383.727H97.6559V389.492H97.7902C98.0586 388.846 98.4738 388.336 99.0356 387.963C99.6023 387.585 100.323 387.396 101.198 387.396C101.994 387.396 102.687 387.563 103.279 387.896C103.87 388.229 104.328 388.716 104.651 389.358C104.979 389.999 105.143 390.782 105.143 391.707V399H102.444V392.124C102.444 391.354 102.245 390.755 101.847 390.327C101.454 389.895 100.902 389.678 100.191 389.678C99.7142 389.678 99.2866 389.783 98.9088 389.991C98.5359 390.195 98.2426 390.491 98.0288 390.879C97.82 391.267 97.7156 391.737 97.7156 392.288Z" fill="#232323"/>
<path d="M3.82345 426.636V439H1.95804V426.636H3.82345ZM8.20023 433.494V439H6.39519V429.727H8.12779V431.237H8.24249C8.45579 430.746 8.78984 430.351 9.24462 430.053C9.70342 429.755 10.281 429.607 10.9772 429.607C11.6091 429.607 12.1625 429.739 12.6374 430.005C13.1123 430.267 13.4805 430.657 13.7421 431.176C14.0037 431.695 14.1345 432.337 14.1345 433.102V439H12.3295V433.319C12.3295 432.647 12.1544 432.122 11.8043 431.744C11.4541 431.361 10.9732 431.17 10.3615 431.17C9.94289 431.17 9.57061 431.261 9.24462 431.442C8.92265 431.623 8.66708 431.888 8.47793 432.239C8.2928 432.585 8.20023 433.003 8.20023 433.494ZM24.1558 429.727L20.7933 439H18.8615L15.4928 429.727H17.4307L19.7791 436.863H19.8757L22.218 429.727H24.1558ZM29.5332 439.187C28.6196 439.187 27.8328 438.992 27.1728 438.602C26.5168 438.207 26.0097 437.654 25.6515 436.941C25.2973 436.225 25.1202 435.386 25.1202 434.424C25.1202 433.474 25.2973 432.637 25.6515 431.913C26.0097 431.188 26.5087 430.623 27.1486 430.216C27.7926 429.81 28.5452 429.607 29.4065 429.607C29.9297 429.607 30.4368 429.693 30.9278 429.866C31.4188 430.039 31.8595 430.311 32.2499 430.681C32.6402 431.051 32.9481 431.532 33.1735 432.124C33.3989 432.712 33.5116 433.426 33.5116 434.267V434.907H26.1405V433.555H31.7428C31.7428 433.08 31.6462 432.659 31.453 432.293C31.2598 431.923 30.9881 431.631 30.638 431.418C30.2919 431.204 29.8854 431.098 29.4185 431.098C28.9114 431.098 28.4687 431.222 28.0904 431.472C27.7161 431.717 27.4263 432.039 27.2211 432.438C27.0199 432.832 26.9192 433.261 26.9192 433.724V434.78C26.9192 435.4 27.0279 435.927 27.2452 436.362C27.4666 436.797 27.7745 437.129 28.1689 437.358C28.5633 437.583 29.0241 437.696 29.5513 437.696C29.8934 437.696 30.2053 437.648 30.4871 437.551C30.7688 437.451 31.0123 437.302 31.2175 437.104C31.4228 436.907 31.5798 436.664 31.6884 436.374L33.3969 436.682C33.26 437.185 33.0145 437.626 32.6604 438.004C32.3102 438.378 31.8695 438.67 31.3383 438.879C30.8111 439.085 30.2094 439.187 29.5332 439.187ZM42.4628 431.991L40.8268 432.281C40.7584 432.072 40.6497 431.872 40.5008 431.683C40.3559 431.494 40.1587 431.339 39.9092 431.218C39.6597 431.098 39.3478 431.037 38.9735 431.037C38.4624 431.037 38.0358 431.152 37.6937 431.381C37.3516 431.607 37.1805 431.899 37.1805 432.257C37.1805 432.567 37.2952 432.816 37.5246 433.005C37.754 433.194 38.1243 433.349 38.6354 433.47L40.1084 433.808C40.9617 434.005 41.5975 434.309 42.0161 434.72C42.4347 435.13 42.6439 435.664 42.6439 436.32C42.6439 436.875 42.483 437.37 42.161 437.805C41.843 438.235 41.3983 438.573 40.8268 438.819C40.2594 439.064 39.6013 439.187 38.8528 439.187C37.8144 439.187 36.9672 438.966 36.3112 438.523C35.6552 438.076 35.2527 437.442 35.1038 436.621L36.8485 436.356C36.9572 436.811 37.1805 437.155 37.5186 437.388C37.8567 437.618 38.2974 437.732 38.8407 437.732C39.4323 437.732 39.9052 437.609 40.2594 437.364C40.6135 437.114 40.7906 436.811 40.7906 436.452C40.7906 436.163 40.6819 435.919 40.4646 435.722C40.2513 435.525 39.9233 435.376 39.4806 435.275L37.911 434.931C37.0457 434.734 36.4058 434.42 35.9912 433.989C35.5807 433.559 35.3755 433.013 35.3755 432.353C35.3755 431.806 35.5284 431.327 35.8343 430.917C36.1402 430.506 36.5627 430.186 37.102 429.957C37.6413 429.723 38.2591 429.607 38.9554 429.607C39.9575 429.607 40.7463 429.824 41.3219 430.259C41.8974 430.689 42.2777 431.267 42.4628 431.991ZM48.9571 429.727V431.176H43.8921V429.727H48.9571ZM45.2504 427.506H47.0554V436.277C47.0554 436.627 47.1078 436.891 47.2124 437.068C47.317 437.241 47.4519 437.36 47.6169 437.424C47.7859 437.485 47.969 437.515 48.1662 437.515C48.3111 437.515 48.4379 437.505 48.5466 437.485C48.6552 437.465 48.7397 437.449 48.8001 437.436L49.1261 438.928C49.0215 438.968 48.8725 439.008 48.6794 439.048C48.4862 439.093 48.2447 439.117 47.9549 439.121C47.48 439.129 47.0373 439.044 46.6268 438.867C46.2163 438.69 45.8843 438.416 45.6307 438.046C45.3772 437.676 45.2504 437.211 45.2504 436.652V427.506ZM54.8506 439.187C53.937 439.187 53.1502 438.992 52.4902 438.602C51.8342 438.207 51.3271 437.654 50.9689 436.941C50.6147 436.225 50.4376 435.386 50.4376 434.424C50.4376 433.474 50.6147 432.637 50.9689 431.913C51.3271 431.188 51.8261 430.623 52.466 430.216C53.11 429.81 53.8626 429.607 54.7238 429.607C55.247 429.607 55.7541 429.693 56.2452 429.866C56.7362 430.039 57.1769 430.311 57.5672 430.681C57.9576 431.051 58.2655 431.532 58.4909 432.124C58.7163 432.712 58.829 433.426 58.829 434.267V434.907H51.4579V433.555H57.0601C57.0601 433.08 56.9635 432.659 56.7704 432.293C56.5772 431.923 56.3055 431.631 55.9554 431.418C55.6093 431.204 55.2028 431.098 54.7359 431.098C54.2288 431.098 53.7861 431.222 53.4078 431.472C53.0335 431.717 52.7437 432.039 52.5385 432.438C52.3372 432.832 52.2366 433.261 52.2366 433.724V434.78C52.2366 435.4 52.3453 435.927 52.5626 436.362C52.784 436.797 53.0919 437.129 53.4863 437.358C53.8807 437.583 54.3415 437.696 54.8687 437.696C55.2108 437.696 55.5227 437.648 55.8045 437.551C56.0862 437.451 56.3297 437.302 56.5349 437.104C56.7402 436.907 56.8971 436.664 57.0058 436.374L58.7143 436.682C58.5774 437.185 58.3319 437.626 57.9778 438.004C57.6276 438.378 57.1869 438.67 56.6557 438.879C56.1284 439.085 55.5268 439.187 54.8506 439.187ZM64.3029 439.181C63.5544 439.181 62.8863 438.99 62.2987 438.608C61.7151 438.221 61.2563 437.672 60.9223 436.96C60.5922 436.243 60.4272 435.384 60.4272 434.382C60.4272 433.38 60.5943 432.522 60.9283 431.81C61.2664 431.098 61.7292 430.552 62.3168 430.174C62.9044 429.796 63.5705 429.607 64.315 429.607C64.8905 429.607 65.3534 429.703 65.7035 429.896C66.0577 430.085 66.3314 430.307 66.5245 430.56C66.7217 430.814 66.8747 431.037 66.9833 431.23H67.092V426.636H68.8971V439H67.1343V437.557H66.9833C66.8747 437.754 66.7177 437.98 66.5125 438.233C66.3112 438.487 66.0335 438.708 65.6794 438.897C65.3252 439.087 64.8664 439.181 64.3029 439.181ZM64.7014 437.642C65.2206 437.642 65.6592 437.505 66.0174 437.231C66.3796 436.953 66.6533 436.569 66.8385 436.078C67.0276 435.587 67.1222 435.016 67.1222 434.364C67.1222 433.72 67.0296 433.156 66.8445 432.673C66.6594 432.19 66.3877 431.814 66.0295 431.544C65.6713 431.275 65.2286 431.14 64.7014 431.14C64.1581 431.14 63.7053 431.281 63.3431 431.562C62.9809 431.844 62.7072 432.229 62.5221 432.716C62.3409 433.203 62.2504 433.752 62.2504 434.364C62.2504 434.983 62.343 435.541 62.5281 436.036C62.7132 436.531 62.9869 436.923 63.3491 437.213C63.7154 437.499 64.1661 437.642 64.7014 437.642ZM77.1616 439H75.1815L79.6307 426.636H81.7859L86.2351 439H84.255L80.7596 428.882H80.663L77.1616 439ZM77.4936 434.158H83.9169V435.728H77.4936V434.158ZM87.8757 439V429.727H89.6083V431.237H89.723C89.9161 430.725 90.2321 430.327 90.6708 430.041C91.1094 429.751 91.6347 429.607 92.2464 429.607C92.8662 429.607 93.3854 429.751 93.8039 430.041C94.2265 430.331 94.5384 430.729 94.7396 431.237H94.8362C95.0576 430.741 95.4097 430.347 95.8927 430.053C96.3757 429.755 96.9512 429.607 97.6193 429.607C98.4604 429.607 99.1466 429.87 99.6779 430.397C100.213 430.925 100.481 431.719 100.481 432.782V439H98.6757V432.951C98.6757 432.323 98.5047 431.868 98.1626 431.587C97.8205 431.305 97.412 431.164 96.9371 431.164C96.3495 431.164 95.8927 431.345 95.5667 431.707C95.2407 432.066 95.0777 432.526 95.0777 433.09V439H93.2787V432.836C93.2787 432.333 93.1217 431.929 92.8078 431.623C92.4939 431.317 92.0854 431.164 91.5823 431.164C91.2402 431.164 90.9243 431.255 90.6345 431.436C90.3488 431.613 90.1174 431.86 89.9403 432.178C89.7672 432.496 89.6807 432.864 89.6807 433.283V439H87.8757ZM106.806 439.187C105.937 439.187 105.178 438.988 104.53 438.589C103.882 438.191 103.379 437.634 103.021 436.917C102.663 436.201 102.484 435.364 102.484 434.406C102.484 433.444 102.663 432.603 103.021 431.882C103.379 431.162 103.882 430.603 104.53 430.204C105.178 429.806 105.937 429.607 106.806 429.607C107.675 429.607 108.434 429.806 109.082 430.204C109.73 430.603 110.233 431.162 110.591 431.882C110.949 432.603 111.128 433.444 111.128 434.406C111.128 435.364 110.949 436.201 110.591 436.917C110.233 437.634 109.73 438.191 109.082 438.589C108.434 438.988 107.675 439.187 106.806 439.187ZM106.812 437.672C107.375 437.672 107.842 437.523 108.213 437.225C108.583 436.927 108.857 436.531 109.034 436.036C109.215 435.541 109.305 434.996 109.305 434.4C109.305 433.808 109.215 433.265 109.034 432.77C108.857 432.271 108.583 431.87 108.213 431.569C107.842 431.267 107.375 431.116 106.812 431.116C106.245 431.116 105.774 431.267 105.399 431.569C105.029 431.87 104.753 432.271 104.572 432.77C104.395 433.265 104.307 433.808 104.307 434.4C104.307 434.996 104.395 435.541 104.572 436.036C104.753 436.531 105.029 436.927 105.399 437.225C105.774 437.523 106.245 437.672 106.812 437.672ZM119.017 435.154V429.727H120.828V439H119.053V437.394H118.957C118.743 437.889 118.401 438.302 117.931 438.632C117.464 438.958 116.882 439.121 116.186 439.121C115.59 439.121 115.063 438.99 114.604 438.728C114.149 438.463 113.791 438.07 113.53 437.551C113.272 437.032 113.143 436.39 113.143 435.625V429.727H114.948V435.408C114.948 436.04 115.123 436.543 115.473 436.917C115.824 437.292 116.278 437.479 116.838 437.479C117.176 437.479 117.512 437.394 117.846 437.225C118.184 437.056 118.464 436.801 118.685 436.458C118.911 436.116 119.021 435.682 119.017 435.154ZM125.059 433.494V439H123.254V429.727H124.986V431.237H125.101C125.314 430.746 125.648 430.351 126.103 430.053C126.562 429.755 127.139 429.607 127.836 429.607C128.467 429.607 129.021 429.739 129.496 430.005C129.971 430.267 130.339 430.657 130.601 431.176C130.862 431.695 130.993 432.337 130.993 433.102V439H129.188V433.319C129.188 432.647 129.013 432.122 128.663 431.744C128.313 431.361 127.832 431.17 127.22 431.17C126.801 431.17 126.429 431.261 126.103 431.442C125.781 431.623 125.525 431.888 125.336 432.239C125.151 432.585 125.059 433.003 125.059 433.494ZM137.742 429.727V431.176H132.677V429.727H137.742ZM134.036 427.506H135.841V436.277C135.841 436.627 135.893 436.891 135.998 437.068C136.102 437.241 136.237 437.36 136.402 437.424C136.571 437.485 136.754 437.515 136.951 437.515C137.096 437.515 137.223 437.505 137.332 437.485C137.44 437.465 137.525 437.449 137.585 437.436L137.911 438.928C137.807 438.968 137.658 439.008 137.465 439.048C137.271 439.093 137.03 439.117 136.74 439.121C136.265 439.129 135.822 439.044 135.412 438.867C135.001 438.69 134.669 438.416 134.416 438.046C134.162 437.676 134.036 437.211 134.036 436.652V427.506Z" fill="#232323"/>
<path d="M267.473 361.343L224.081 327.789L180.688 361.343V411.674H267.473V361.343Z" fill="#0C0C2D"/>
<path d="M267.348 428H180.563V446.175H267.348V428Z" fill="#0C0C2D"/>
<path d="M205.86 432.545H207.171L209.793 436.959H209.904L212.526 432.545H213.837L210.421 438.103V442H209.276V438.103L205.86 432.545ZM217.14 442.147C216.457 442.147 215.868 441.997 215.372 441.695C214.88 441.39 214.5 440.966 214.232 440.421C213.967 439.873 213.835 439.236 213.835 438.51C213.835 437.783 213.967 437.143 214.232 436.589C214.5 436.032 214.872 435.598 215.349 435.287C215.829 434.973 216.389 434.817 217.029 434.817C217.399 434.817 217.763 434.878 218.124 435.001C218.484 435.124 218.811 435.324 219.107 435.601C219.402 435.875 219.638 436.238 219.813 436.691C219.989 437.143 220.076 437.7 220.076 438.362V438.824H214.61V437.882H218.968C218.968 437.482 218.888 437.125 218.728 436.811C218.571 436.497 218.347 436.249 218.054 436.068C217.765 435.886 217.423 435.795 217.029 435.795C216.595 435.795 216.22 435.903 215.903 436.118C215.589 436.331 215.347 436.608 215.178 436.949C215.009 437.291 214.924 437.657 214.924 438.048V438.676C214.924 439.211 215.017 439.665 215.201 440.038C215.389 440.407 215.649 440.689 215.981 440.883C216.314 441.073 216.7 441.169 217.14 441.169C217.426 441.169 217.685 441.129 217.916 441.049C218.15 440.966 218.351 440.843 218.521 440.679C218.69 440.513 218.821 440.307 218.913 440.061L219.965 440.356C219.855 440.713 219.669 441.027 219.407 441.298C219.145 441.566 218.822 441.775 218.437 441.926C218.053 442.074 217.62 442.147 217.14 442.147ZM223.82 442.166C223.371 442.166 222.963 442.081 222.597 441.912C222.231 441.74 221.94 441.492 221.724 441.169C221.509 440.843 221.401 440.449 221.401 439.987C221.401 439.581 221.481 439.251 221.641 438.999C221.801 438.744 222.015 438.544 222.283 438.399C222.551 438.254 222.846 438.147 223.169 438.076C223.496 438.002 223.823 437.943 224.153 437.9C224.584 437.845 224.933 437.803 225.201 437.776C225.471 437.745 225.668 437.694 225.791 437.623C225.918 437.553 225.981 437.429 225.981 437.254V437.217C225.981 436.762 225.856 436.408 225.607 436.155C225.361 435.903 224.987 435.777 224.485 435.777C223.965 435.777 223.557 435.891 223.262 436.118C222.966 436.346 222.758 436.589 222.638 436.848L221.604 436.478C221.789 436.048 222.035 435.712 222.343 435.472C222.654 435.229 222.992 435.06 223.359 434.964C223.728 434.866 224.091 434.817 224.448 434.817C224.676 434.817 224.937 434.844 225.233 434.9C225.531 434.952 225.819 435.061 226.096 435.227C226.376 435.394 226.609 435.644 226.793 435.98C226.978 436.315 227.07 436.765 227.07 437.328V442H225.981V441.04H225.925C225.852 441.193 225.728 441.358 225.556 441.533C225.384 441.709 225.154 441.858 224.868 441.981C224.582 442.104 224.233 442.166 223.82 442.166ZM223.986 441.187C224.417 441.187 224.78 441.103 225.076 440.933C225.374 440.764 225.599 440.546 225.75 440.278C225.904 440.01 225.981 439.728 225.981 439.433V438.436C225.935 438.491 225.833 438.542 225.676 438.588C225.522 438.631 225.344 438.67 225.141 438.704C224.941 438.734 224.745 438.762 224.554 438.787C224.367 438.808 224.214 438.827 224.097 438.842C223.814 438.879 223.549 438.939 223.303 439.022C223.06 439.102 222.863 439.224 222.712 439.387C222.565 439.547 222.491 439.765 222.491 440.042C222.491 440.421 222.631 440.707 222.911 440.901C223.194 441.092 223.553 441.187 223.986 441.187ZM229.059 442V434.909H230.111V435.98H230.185C230.314 435.629 230.548 435.344 230.887 435.126C231.225 434.907 231.607 434.798 232.032 434.798C232.112 434.798 232.212 434.8 232.332 434.803C232.452 434.806 232.543 434.81 232.604 434.817V435.924C232.567 435.915 232.483 435.901 232.35 435.883C232.221 435.861 232.084 435.851 231.939 435.851C231.595 435.851 231.287 435.923 231.016 436.068C230.748 436.209 230.536 436.406 230.379 436.658C230.225 436.908 230.148 437.192 230.148 437.513V442H229.059ZM240.857 432.545V442H239.712V433.745H239.657L237.349 435.278V434.115L239.712 432.545H240.857Z" fill="white"/>
<path d="M201.212 291.879H198.144V290.093H201.212V287.002H202.998V290.093H206.066V291.879H202.998V295.016H201.212V291.879ZM211.159 286.773H208.525V284.987C209.243 284.987 209.815 284.926 210.243 284.804C210.685 284.682 211.036 284.484 211.296 284.209C211.555 283.919 211.784 283.507 211.983 282.972H213.677V299H211.159V286.773ZM216.8 296.573H219.227V299H216.8V296.573ZM224.642 286.773H222.009V284.987C222.726 284.987 223.299 284.926 223.726 284.804C224.169 284.682 224.52 284.484 224.779 284.209C225.039 283.919 225.268 283.507 225.466 282.972H227.16V299H224.642V286.773ZM233.924 299.229C232.657 299.229 231.68 298.893 230.993 298.222C230.322 297.535 229.986 296.55 229.986 295.268V293.848C229.986 293.055 230.116 292.391 230.375 291.856C230.635 291.307 231.054 290.879 231.634 290.574V290.528C231.1 290.238 230.703 289.841 230.444 289.338C230.199 288.819 230.077 288.162 230.077 287.369V286.705C230.077 285.422 230.406 284.445 231.062 283.774C231.734 283.087 232.688 282.743 233.924 282.743C235.16 282.743 236.107 283.087 236.763 283.774C237.435 284.445 237.771 285.422 237.771 286.705V287.369C237.771 288.895 237.252 289.948 236.214 290.528V290.574C236.794 290.879 237.214 291.307 237.473 291.856C237.733 292.391 237.862 293.055 237.862 293.848V295.268C237.862 296.55 237.519 297.535 236.832 298.222C236.16 298.893 235.191 299.229 233.924 299.229ZM233.924 289.498C234.809 289.498 235.252 288.964 235.252 287.895V286.636C235.252 285.567 234.809 285.033 233.924 285.033C233.039 285.033 232.596 285.567 232.596 286.636V287.895C232.596 288.964 233.039 289.498 233.924 289.498ZM233.924 296.94C234.87 296.94 235.344 296.337 235.344 295.131V293.597C235.344 292.391 234.87 291.788 233.924 291.788C232.978 291.788 232.504 292.391 232.504 293.597V295.131C232.504 296.337 232.978 296.94 233.924 296.94Z" fill="#C18E00"/>
<path d="M372.901 294.65L329.508 261.096L286.115 294.65V412.088H372.9L372.901 294.65Z" fill="#0C0C2D"/>
<path d="M372.901 428.825H286.116V447H372.901V428.825Z" fill="#0C0C2D"/>
<path d="M305.858 225.186H302.789V223.4H305.858V220.309H307.644V223.4H310.712V225.186H307.644V228.323H305.858V225.186ZM315.804 220.08H313.171V218.294C313.888 218.294 314.461 218.233 314.888 218.111C315.331 217.989 315.682 217.79 315.941 217.516C316.201 217.226 316.43 216.813 316.628 216.279H318.323V232.307H315.804V220.08ZM321.446 229.88H323.873V232.307H321.446V229.88ZM329.333 232.536C328.097 232.536 327.158 232.193 326.517 231.506C325.891 230.819 325.578 229.834 325.578 228.552V227.247H327.959V228.667C327.959 229.72 328.394 230.246 329.264 230.246C329.692 230.246 330.012 230.117 330.226 229.857C330.455 229.582 330.569 229.109 330.569 228.438V227.132C330.569 226.4 330.44 225.881 330.18 225.575C329.921 225.255 329.501 225.095 328.921 225.095H328.074V222.805H328.99C329.493 222.805 329.867 222.675 330.112 222.416C330.371 222.156 330.501 221.721 330.501 221.11V219.943C330.501 219.393 330.386 218.989 330.157 218.729C329.928 218.47 329.623 218.34 329.241 218.34C328.432 218.34 328.028 218.836 328.028 219.828V220.882H325.647V220.034C325.647 218.752 325.96 217.768 326.585 217.081C327.226 216.394 328.142 216.05 329.333 216.05C330.539 216.05 331.455 216.394 332.081 217.081C332.707 217.752 333.019 218.729 333.019 220.011V220.584C333.019 221.454 332.874 222.156 332.584 222.69C332.294 223.209 331.844 223.583 331.233 223.812V223.858C331.89 224.102 332.363 224.499 332.653 225.049C332.943 225.598 333.088 226.3 333.088 227.155V228.575C333.088 229.857 332.768 230.842 332.126 231.529C331.501 232.2 330.569 232.536 329.333 232.536ZM338.478 232.536C337.257 232.536 336.326 232.193 335.684 231.506C335.043 230.804 334.723 229.804 334.723 228.506V228.209H337.104V228.667C337.104 229.72 337.539 230.246 338.409 230.246C338.882 230.246 339.233 230.101 339.462 229.811C339.691 229.521 339.806 229.01 339.806 228.277V225.209H339.76C339.317 226.14 338.554 226.606 337.47 226.606C336.555 226.606 335.86 226.293 335.387 225.667C334.914 225.041 334.677 224.133 334.677 222.942V220.08C334.677 218.798 335.005 217.806 335.662 217.104C336.318 216.401 337.264 216.05 338.501 216.05C339.737 216.05 340.684 216.401 341.34 217.104C341.996 217.806 342.325 218.798 342.325 220.08V228.369C342.325 231.147 341.042 232.536 338.478 232.536ZM338.501 224.316C339.371 224.316 339.806 223.789 339.806 222.736V219.897C339.806 218.859 339.371 218.34 338.501 218.34C337.631 218.34 337.196 218.859 337.196 219.897V222.736C337.196 223.789 337.631 224.316 338.501 224.316Z" fill="#9F0023"/>
<path d="M478.081 261.096L435.02 227.542L391.294 261.096V412.088H478.079L478.081 261.096Z" fill="#0C0C2D"/>
<path d="M478.079 428.825H391.294V447H478.079V428.825Z" fill="#0C0C2D"/>
<path d="M411.036 191.632H407.968V189.846H411.036V186.755H412.822V189.846H415.89V191.632H412.822V194.769H411.036V191.632ZM420.982 186.526H418.349V184.74C419.066 184.74 419.639 184.679 420.066 184.557C420.509 184.435 420.86 184.237 421.12 183.962C421.379 183.672 421.608 183.26 421.806 182.726H423.501V198.753H420.982V186.526ZM426.624 196.326H429.051V198.753H426.624V196.326ZM434.649 198.982C433.412 198.982 432.466 198.631 431.809 197.929C431.153 197.227 430.825 196.235 430.825 194.953V186.664C430.825 183.886 432.107 182.497 434.672 182.497C435.893 182.497 436.824 182.848 437.465 183.55C438.106 184.237 438.427 185.229 438.427 186.526V186.824H436.045V186.366C436.045 185.313 435.61 184.786 434.74 184.786C434.267 184.786 433.916 184.931 433.687 185.221C433.458 185.511 433.343 186.023 433.343 186.755V189.824H433.389C433.832 188.892 434.595 188.427 435.679 188.427C436.595 188.427 437.289 188.74 437.763 189.366C438.236 189.991 438.472 190.9 438.472 192.09V194.953C438.472 196.235 438.144 197.227 437.488 197.929C436.831 198.631 435.885 198.982 434.649 198.982ZM434.649 196.693C435.519 196.693 435.954 196.174 435.954 195.136V192.296C435.954 191.243 435.519 190.717 434.649 190.717C433.779 190.717 433.343 191.243 433.343 192.296V195.136C433.343 196.174 433.779 196.693 434.649 196.693ZM444.32 195.845H439.512V193.556L444.091 182.726H446.839V193.556H448.029V195.845H446.839V198.753H444.32V195.845ZM444.32 193.556V187.305H444.274L441.801 193.556H444.32Z" fill="#680353"/>
<path d="M583.259 210.765L539.866 177.211L496.473 210.765V412.087H583.258L583.259 210.765Z" fill="#0C0C2D"/>
<path d="M583.259 428.825H496.474V447H583.259V428.825Z" fill="#0C0C2D"/>
<path d="M516.006 141.301H512.938V139.515H516.006V136.424H517.792V139.515H520.86V141.301H517.792V144.438H516.006V141.301ZM525.952 136.195H523.319V134.409C524.037 134.409 524.609 134.348 525.036 134.226C525.479 134.104 525.83 133.905 526.09 133.631C526.349 133.341 526.578 132.928 526.777 132.394H528.471V148.422H525.952V136.195ZM531.594 145.995H534.021V148.422H531.594V145.995ZM539.458 148.651C538.237 148.651 537.306 148.308 536.665 147.621C536.024 146.919 535.703 145.919 535.703 144.621V144.324H538.085V144.781C538.085 145.835 538.52 146.361 539.39 146.361C539.863 146.361 540.214 146.216 540.443 145.926C540.672 145.636 540.786 145.125 540.786 144.392V141.324H540.741C540.298 142.255 539.535 142.721 538.451 142.721C537.535 142.721 536.841 142.408 536.367 141.782C535.894 141.156 535.658 140.248 535.658 139.057V136.195C535.658 134.913 535.986 133.921 536.642 133.219C537.298 132.516 538.245 132.165 539.481 132.165C540.718 132.165 541.664 132.516 542.321 133.219C542.977 133.921 543.305 134.913 543.305 136.195V144.484C543.305 147.262 542.023 148.651 539.458 148.651ZM539.481 140.431C540.351 140.431 540.786 139.904 540.786 138.851V136.012C540.786 134.974 540.351 134.455 539.481 134.455C538.611 134.455 538.176 134.974 538.176 136.012V138.851C538.176 139.904 538.611 140.431 539.481 140.431ZM548.649 148.651C547.413 148.651 546.474 148.308 545.833 147.621C545.207 146.934 544.894 145.949 544.894 144.667V143.362H547.275V144.781C547.275 145.835 547.71 146.361 548.58 146.361C549.008 146.361 549.328 146.232 549.542 145.972C549.771 145.697 549.886 145.224 549.886 144.553V143.247C549.886 142.515 549.756 141.996 549.496 141.69C549.237 141.37 548.817 141.21 548.237 141.21H547.39V138.92H548.306C548.809 138.92 549.183 138.79 549.428 138.531C549.687 138.271 549.817 137.836 549.817 137.225V136.058C549.817 135.508 549.702 135.104 549.473 134.844C549.244 134.585 548.939 134.455 548.557 134.455C547.748 134.455 547.344 134.951 547.344 135.943V136.997H544.963V136.149C544.963 134.867 545.276 133.883 545.901 133.196C546.543 132.509 547.458 132.165 548.649 132.165C549.855 132.165 550.771 132.509 551.397 133.196C552.023 133.867 552.335 134.844 552.335 136.126V136.699C552.335 137.569 552.19 138.271 551.9 138.805C551.61 139.324 551.16 139.698 550.55 139.927V139.973C551.206 140.217 551.679 140.614 551.969 141.164C552.259 141.713 552.404 142.415 552.404 143.27V144.69C552.404 145.972 552.084 146.957 551.443 147.644C550.817 148.315 549.886 148.651 548.649 148.651Z" fill="#3F0374"/>
<path d="M688.437 143.658L645.044 110.104L601.651 143.658V412.087H688.437V143.658Z" fill="#0C0C2D"/>
<path d="M688.438 428.825H601.652V447H688.438V428.825Z" fill="#0C0C2D"/>
<path d="M621.394 74.1937H618.326V72.4078H621.394V69.3167H623.18V72.4078H626.248V74.1937H623.18V77.3306H621.394V74.1937ZM627.768 79.5745C627.768 78.4297 627.951 77.4527 628.318 76.6437C628.684 75.8194 629.341 74.9112 630.287 73.919C631.218 72.9268 631.859 72.0796 632.21 71.3774C632.577 70.6752 632.76 69.9425 632.76 69.1793C632.76 68.4924 632.645 68.0192 632.416 67.7597C632.203 67.4849 631.882 67.3475 631.455 67.3475C630.585 67.3475 630.15 67.8742 630.15 68.9274V70.6447H627.768V69.0877C627.768 67.7902 628.089 66.798 628.73 66.1111C629.371 65.4089 630.302 65.0578 631.523 65.0578C632.745 65.0578 633.676 65.4089 634.317 66.1111C634.958 66.798 635.278 67.7902 635.278 69.0877C635.278 70.0646 635.042 71.0187 634.569 71.9498C634.111 72.881 633.309 73.9495 632.164 75.1554C631.417 75.9492 630.913 76.5979 630.653 77.1016C630.394 77.5901 630.264 78.1167 630.264 78.6815V79.025H635.049V81.3147H627.768V79.5745ZM636.982 78.8876H639.409V81.3147H636.982V78.8876ZM641.252 79.5745C641.252 78.4297 641.435 77.4527 641.801 76.6437C642.167 75.8194 642.824 74.9112 643.77 73.919C644.701 72.9268 645.342 72.0796 645.694 71.3774C646.06 70.6752 646.243 69.9425 646.243 69.1793C646.243 68.4924 646.129 68.0192 645.9 67.7597C645.686 67.4849 645.365 67.3475 644.938 67.3475C644.068 67.3475 643.633 67.8742 643.633 68.9274V70.6447H641.252V69.0877C641.252 67.7902 641.572 66.798 642.213 66.1111C642.854 65.4089 643.785 65.0578 645.007 65.0578C646.228 65.0578 647.159 65.4089 647.8 66.1111C648.441 66.798 648.762 67.7902 648.762 69.0877C648.762 70.0646 648.525 71.0187 648.052 71.9498C647.594 72.881 646.793 73.9495 645.648 75.1554C644.9 75.9492 644.396 76.5979 644.137 77.1016C643.877 77.5901 643.747 78.1167 643.747 78.6815V79.025H648.533V81.3147H641.252V79.5745Z" fill="#700283"/>
<path d="M182.389 250.873C182.389 250.873 229.912 200.542 329.51 183.765C402.248 171.511 472.963 146.826 545.876 78.443C582.742 43.8687 616.199 20.9613 645.058 9.03857" stroke="#BDBDBD" stroke-width="2" stroke-linecap="round" stroke-linejoin="round"/>
<path d="M224.436 227.804C228.683 227.804 232.126 224.361 232.126 220.115C232.126 215.868 228.683 212.425 224.436 212.425C220.19 212.425 216.747 215.868 216.747 220.115C216.747 224.361 220.19 227.804 224.436 227.804Z" fill="url(#paint0_linear_1011_19332)"/>
<path d="M329.509 191.454C333.756 191.454 337.199 188.012 337.199 183.765C337.199 179.518 333.756 176.075 329.509 176.075C325.263 176.075 321.82 179.518 321.82 183.765C321.82 188.012 325.263 191.454 329.509 191.454Z" fill="url(#paint1_linear_1011_19332)"/>
<path d="M434.689 161.046C438.936 161.046 442.379 157.604 442.379 153.357C442.379 149.11 438.936 145.667 434.689 145.667C430.442 145.667 427 149.11 427 153.357C427 157.604 430.442 161.046 434.689 161.046Z" fill="url(#paint2_linear_1011_19332)"/>
<path d="M539.866 90.7931C544.113 90.7931 547.555 87.3504 547.555 83.1037C547.555 78.857 544.113 75.4143 539.866 75.4143C535.619 75.4143 532.177 78.857 532.177 83.1037C532.177 87.3504 535.619 90.7931 539.866 90.7931Z" fill="url(#paint3_linear_1011_19332)"/>
<path d="M645.074 15.8214C649.32 15.8214 652.763 12.3788 652.763 8.13202C652.763 3.88529 649.32 0.442627 645.074 0.442627C640.827 0.442627 637.384 3.88529 637.384 8.13202C637.384 12.3788 640.827 15.8214 645.074 15.8214Z" fill="url(#paint4_linear_1011_19332)"/>
<path d="M310.821 433.989H312.132L314.754 438.402H314.865L317.487 433.989H318.798L315.382 439.547V443.443H314.237V439.547L310.821 433.989ZM322.101 443.591C321.418 443.591 320.829 443.44 320.333 443.138C319.841 442.834 319.461 442.409 319.193 441.864C318.928 441.316 318.796 440.679 318.796 439.953C318.796 439.227 318.928 438.587 319.193 438.033C319.461 437.476 319.833 437.042 320.31 436.731C320.79 436.417 321.35 436.26 321.99 436.26C322.36 436.26 322.724 436.321 323.084 436.445C323.445 436.568 323.772 436.768 324.068 437.045C324.363 437.319 324.599 437.682 324.774 438.134C324.95 438.587 325.037 439.144 325.037 439.805V440.267H319.571V439.325H323.929C323.929 438.925 323.849 438.568 323.689 438.254C323.532 437.94 323.308 437.693 323.015 437.511C322.726 437.329 322.384 437.239 321.99 437.239C321.556 437.239 321.181 437.346 320.864 437.562C320.55 437.774 320.308 438.051 320.139 438.393C319.97 438.734 319.885 439.101 319.885 439.491V440.119C319.885 440.655 319.978 441.109 320.162 441.481C320.35 441.85 320.61 442.132 320.942 442.326C321.275 442.517 321.661 442.612 322.101 442.612C322.387 442.612 322.646 442.572 322.877 442.492C323.111 442.409 323.312 442.286 323.481 442.123C323.651 441.957 323.782 441.75 323.874 441.504L324.926 441.8C324.816 442.157 324.629 442.471 324.368 442.741C324.106 443.009 323.783 443.218 323.398 443.369C323.014 443.517 322.581 443.591 322.101 443.591ZM328.781 443.609C328.332 443.609 327.924 443.525 327.558 443.355C327.192 443.183 326.901 442.935 326.685 442.612C326.47 442.286 326.362 441.892 326.362 441.43C326.362 441.024 326.442 440.695 326.602 440.442C326.762 440.187 326.976 439.987 327.244 439.842C327.512 439.698 327.807 439.59 328.13 439.519C328.457 439.445 328.784 439.387 329.114 439.344C329.544 439.288 329.894 439.247 330.162 439.219C330.432 439.188 330.629 439.137 330.752 439.067C330.879 438.996 330.942 438.873 330.942 438.697V438.66C330.942 438.205 330.817 437.851 330.568 437.599C330.322 437.346 329.948 437.22 329.446 437.22C328.926 437.22 328.518 437.334 328.223 437.562C327.927 437.789 327.719 438.033 327.599 438.291L326.565 437.922C326.75 437.491 326.996 437.155 327.304 436.915C327.615 436.672 327.953 436.503 328.32 436.408C328.689 436.309 329.052 436.26 329.409 436.26C329.637 436.26 329.898 436.288 330.194 436.343C330.492 436.395 330.78 436.505 331.057 436.671C331.337 436.837 331.57 437.088 331.754 437.423C331.939 437.759 332.031 438.208 332.031 438.771V443.443H330.942V442.483H330.886C330.812 442.637 330.689 442.801 330.517 442.977C330.345 443.152 330.115 443.302 329.829 443.425C329.543 443.548 329.194 443.609 328.781 443.609ZM328.947 442.631C329.378 442.631 329.741 442.546 330.037 442.377C330.335 442.207 330.56 441.989 330.711 441.721C330.865 441.453 330.942 441.172 330.942 440.876V439.879C330.896 439.935 330.794 439.985 330.637 440.032C330.483 440.075 330.305 440.113 330.102 440.147C329.901 440.178 329.706 440.205 329.515 440.23C329.327 440.252 329.175 440.27 329.058 440.285C328.775 440.322 328.51 440.382 328.264 440.465C328.021 440.546 327.824 440.667 327.673 440.83C327.526 440.99 327.452 441.209 327.452 441.486C327.452 441.864 327.592 442.151 327.872 442.344C328.155 442.535 328.513 442.631 328.947 442.631ZM334.02 443.443V436.352H335.072V437.423H335.146C335.275 437.072 335.509 436.788 335.848 436.569C336.186 436.351 336.568 436.241 336.993 436.241C337.073 436.241 337.173 436.243 337.293 436.246C337.413 436.249 337.504 436.254 337.565 436.26V437.368C337.528 437.359 337.444 437.345 337.311 437.326C337.182 437.305 337.045 437.294 336.9 437.294C336.556 437.294 336.248 437.366 335.977 437.511C335.709 437.653 335.497 437.849 335.34 438.102C335.186 438.351 335.109 438.636 335.109 438.956V443.443H334.02ZM342.494 443.443V442.612L345.615 439.196C345.981 438.796 346.283 438.448 346.52 438.153C346.757 437.854 346.932 437.574 347.046 437.312C347.163 437.048 347.222 436.771 347.222 436.481C347.222 436.149 347.142 435.861 346.982 435.618C346.825 435.375 346.609 435.187 346.335 435.055C346.061 434.923 345.754 434.856 345.412 434.856C345.049 434.856 344.732 434.932 344.461 435.083C344.193 435.23 343.986 435.438 343.838 435.706C343.693 435.974 343.621 436.288 343.621 436.648H342.531C342.531 436.094 342.659 435.607 342.915 435.189C343.17 434.77 343.518 434.444 343.958 434.21C344.401 433.976 344.898 433.859 345.449 433.859C346.003 433.859 346.494 433.976 346.922 434.21C347.349 434.444 347.685 434.76 347.928 435.157C348.171 435.554 348.293 435.995 348.293 436.481C348.293 436.829 348.23 437.169 348.103 437.502C347.98 437.831 347.765 438.199 347.457 438.605C347.152 439.008 346.729 439.501 346.188 440.082L344.064 442.354V442.427H348.459V443.443H342.494Z" fill="white"/>
<path d="M415.618 433.989H416.929L419.551 438.402H419.662L422.284 433.989H423.595L420.179 439.547V443.443H419.034V439.547L415.618 433.989ZM426.898 443.591C426.215 443.591 425.625 443.44 425.13 443.138C424.637 442.834 424.257 442.409 423.99 441.864C423.725 441.316 423.593 440.679 423.593 439.953C423.593 439.227 423.725 438.587 423.99 438.033C424.257 437.476 424.63 437.042 425.107 436.731C425.587 436.417 426.147 436.26 426.787 436.26C427.157 436.26 427.521 436.321 427.881 436.445C428.241 436.568 428.569 436.768 428.865 437.045C429.16 437.319 429.396 437.682 429.571 438.134C429.746 438.587 429.834 439.144 429.834 439.805V440.267H424.368V439.325H428.726C428.726 438.925 428.646 438.568 428.486 438.254C428.329 437.94 428.104 437.693 427.812 437.511C427.523 437.329 427.181 437.239 426.787 437.239C426.353 437.239 425.978 437.346 425.661 437.562C425.347 437.774 425.105 438.051 424.936 438.393C424.767 438.734 424.682 439.101 424.682 439.491V440.119C424.682 440.655 424.774 441.109 424.959 441.481C425.147 441.85 425.407 442.132 425.739 442.326C426.072 442.517 426.458 442.612 426.898 442.612C427.184 442.612 427.443 442.572 427.674 442.492C427.907 442.409 428.109 442.286 428.278 442.123C428.448 441.957 428.578 441.75 428.671 441.504L429.723 441.8C429.613 442.157 429.426 442.471 429.165 442.741C428.903 443.009 428.58 443.218 428.195 443.369C427.811 443.517 427.378 443.591 426.898 443.591ZM433.578 443.609C433.129 443.609 432.721 443.525 432.355 443.355C431.988 443.183 431.698 442.935 431.482 442.612C431.267 442.286 431.159 441.892 431.159 441.43C431.159 441.024 431.239 440.695 431.399 440.442C431.559 440.187 431.773 439.987 432.041 439.842C432.309 439.698 432.604 439.59 432.927 439.519C433.253 439.445 433.581 439.387 433.91 439.344C434.341 439.288 434.691 439.247 434.958 439.219C435.229 439.188 435.426 439.137 435.549 439.067C435.675 438.996 435.739 438.873 435.739 438.697V438.66C435.739 438.205 435.614 437.851 435.365 437.599C435.118 437.346 434.744 437.22 434.243 437.22C433.723 437.22 433.315 437.334 433.019 437.562C432.724 437.789 432.516 438.033 432.396 438.291L431.362 437.922C431.547 437.491 431.793 437.155 432.101 436.915C432.412 436.672 432.75 436.503 433.116 436.408C433.486 436.309 433.849 436.26 434.206 436.26C434.434 436.26 434.695 436.288 434.991 436.343C435.289 436.395 435.577 436.505 435.854 436.671C436.134 436.837 436.366 437.088 436.551 437.423C436.736 437.759 436.828 438.208 436.828 438.771V443.443H435.739V442.483H435.683C435.609 442.637 435.486 442.801 435.314 442.977C435.142 443.152 434.912 443.302 434.626 443.425C434.34 443.548 433.99 443.609 433.578 443.609ZM433.744 442.631C434.175 442.631 434.538 442.546 434.834 442.377C435.132 442.207 435.357 441.989 435.508 441.721C435.662 441.453 435.739 441.172 435.739 440.876V439.879C435.692 439.935 435.591 439.985 435.434 440.032C435.28 440.075 435.102 440.113 434.898 440.147C434.698 440.178 434.503 440.205 434.312 440.23C434.124 440.252 433.972 440.27 433.855 440.285C433.572 440.322 433.307 440.382 433.061 440.465C432.818 440.546 432.621 440.667 432.47 440.83C432.322 440.99 432.249 441.209 432.249 441.486C432.249 441.864 432.389 442.151 432.669 442.344C432.952 442.535 433.31 442.631 433.744 442.631ZM438.817 443.443V436.352H439.869V437.423H439.943C440.072 437.072 440.306 436.788 440.645 436.569C440.983 436.351 441.365 436.241 441.79 436.241C441.87 436.241 441.97 436.243 442.09 436.246C442.21 436.249 442.301 436.254 442.362 436.26V437.368C442.325 437.359 442.241 437.345 442.108 437.326C441.979 437.305 441.842 437.294 441.697 437.294C441.353 437.294 441.045 437.366 440.774 437.511C440.506 437.653 440.294 437.849 440.137 438.102C439.983 438.351 439.906 438.636 439.906 438.956V443.443H438.817ZM450.486 443.572C449.877 443.572 449.333 443.468 448.856 443.258C448.382 443.049 448.005 442.758 447.725 442.386C447.448 442.01 447.297 441.575 447.273 441.079H448.436C448.461 441.384 448.565 441.647 448.75 441.869C448.935 442.087 449.176 442.257 449.475 442.377C449.773 442.497 450.104 442.557 450.467 442.557C450.874 442.557 451.234 442.486 451.548 442.344C451.862 442.203 452.108 442.006 452.286 441.753C452.465 441.501 452.554 441.209 452.554 440.876C452.554 440.529 452.468 440.222 452.296 439.958C452.123 439.69 451.871 439.481 451.538 439.33C451.206 439.179 450.8 439.104 450.32 439.104H449.563V438.088H450.32C450.695 438.088 451.025 438.02 451.308 437.885C451.594 437.749 451.817 437.559 451.977 437.312C452.14 437.066 452.222 436.777 452.222 436.445C452.222 436.124 452.151 435.846 452.009 435.609C451.868 435.372 451.668 435.187 451.409 435.055C451.154 434.923 450.852 434.856 450.504 434.856C450.178 434.856 449.87 434.916 449.581 435.037C449.295 435.153 449.061 435.324 448.879 435.549C448.698 435.771 448.599 436.038 448.584 436.352H447.476C447.494 435.857 447.644 435.423 447.924 435.05C448.204 434.675 448.57 434.383 449.022 434.173C449.478 433.964 449.978 433.859 450.523 433.859C451.108 433.859 451.609 433.978 452.028 434.215C452.446 434.449 452.768 434.758 452.993 435.143C453.217 435.527 453.33 435.943 453.33 436.389C453.33 436.922 453.19 437.376 452.91 437.751C452.633 438.126 452.256 438.387 451.779 438.531V438.605C452.376 438.704 452.842 438.957 453.177 439.367C453.513 439.773 453.681 440.276 453.681 440.876C453.681 441.39 453.54 441.852 453.26 442.261C452.983 442.668 452.605 442.988 452.125 443.222C451.645 443.455 451.098 443.572 450.486 443.572Z" fill="white"/>
<path d="M520.586 433.989H521.897L524.519 438.402H524.63L527.252 433.989H528.563L525.147 439.547V443.443H524.002V439.547L520.586 433.989ZM531.866 443.591C531.183 443.591 530.594 443.44 530.098 443.138C529.606 442.834 529.226 442.409 528.958 441.864C528.693 441.316 528.561 440.679 528.561 439.953C528.561 439.227 528.693 438.587 528.958 438.033C529.226 437.476 529.598 437.042 530.075 436.731C530.555 436.417 531.115 436.26 531.755 436.26C532.125 436.26 532.49 436.321 532.85 436.445C533.21 436.568 533.537 436.768 533.833 437.045C534.128 437.319 534.364 437.682 534.539 438.134C534.715 438.587 534.802 439.144 534.802 439.805V440.267H529.336V439.325H533.694C533.694 438.925 533.614 438.568 533.454 438.254C533.297 437.94 533.073 437.693 532.78 437.511C532.491 437.329 532.149 437.239 531.755 437.239C531.322 437.239 530.946 437.346 530.629 437.562C530.315 437.774 530.074 438.051 529.904 438.393C529.735 438.734 529.65 439.101 529.65 439.491V440.119C529.65 440.655 529.743 441.109 529.927 441.481C530.115 441.85 530.375 442.132 530.708 442.326C531.04 442.517 531.426 442.612 531.866 442.612C532.153 442.612 532.411 442.572 532.642 442.492C532.876 442.409 533.077 442.286 533.247 442.123C533.416 441.957 533.547 441.75 533.639 441.504L534.692 441.8C534.581 442.157 534.395 442.471 534.133 442.741C533.871 443.009 533.548 443.218 533.164 443.369C532.779 443.517 532.346 443.591 531.866 443.591ZM538.546 443.609C538.097 443.609 537.689 443.525 537.323 443.355C536.957 443.183 536.666 442.935 536.45 442.612C536.235 442.286 536.127 441.892 536.127 441.43C536.127 441.024 536.207 440.695 536.367 440.442C536.527 440.187 536.741 439.987 537.009 439.842C537.277 439.698 537.572 439.59 537.895 439.519C538.222 439.445 538.549 439.387 538.879 439.344C539.31 439.288 539.659 439.247 539.927 439.219C540.197 439.188 540.394 439.137 540.518 439.067C540.644 438.996 540.707 438.873 540.707 438.697V438.66C540.707 438.205 540.582 437.851 540.333 437.599C540.087 437.346 539.713 437.22 539.211 437.22C538.691 437.22 538.283 437.334 537.988 437.562C537.692 437.789 537.485 438.033 537.365 438.291L536.33 437.922C536.515 437.491 536.761 437.155 537.069 436.915C537.38 436.672 537.718 436.503 538.085 436.408C538.454 436.309 538.817 436.26 539.174 436.26C539.402 436.26 539.664 436.288 539.959 436.343C540.258 436.395 540.545 436.505 540.822 436.671C541.102 436.837 541.335 437.088 541.519 437.423C541.704 437.759 541.796 438.208 541.796 438.771V443.443H540.707V442.483H540.651C540.578 442.637 540.454 442.801 540.282 442.977C540.11 443.152 539.88 443.302 539.594 443.425C539.308 443.548 538.959 443.609 538.546 443.609ZM538.713 442.631C539.143 442.631 539.507 442.546 539.802 442.377C540.101 442.207 540.325 441.989 540.476 441.721C540.63 441.453 540.707 441.172 540.707 440.876V439.879C540.661 439.935 540.559 439.985 540.402 440.032C540.248 440.075 540.07 440.113 539.867 440.147C539.667 440.178 539.471 440.205 539.28 440.23C539.093 440.252 538.94 440.27 538.823 440.285C538.54 440.322 538.275 440.382 538.029 440.465C537.786 440.546 537.589 440.667 537.438 440.83C537.291 440.99 537.217 441.209 537.217 441.486C537.217 441.864 537.357 442.151 537.637 442.344C537.92 442.535 538.279 442.631 538.713 442.631ZM543.785 443.443V436.352H544.837V437.423H544.911C545.041 437.072 545.274 436.788 545.613 436.569C545.952 436.351 546.333 436.241 546.758 436.241C546.838 436.241 546.938 436.243 547.058 436.246C547.178 436.249 547.269 436.254 547.33 436.26V437.368C547.293 437.359 547.209 437.345 547.076 437.326C546.947 437.305 546.81 437.294 546.666 437.294C546.321 437.294 546.013 437.366 545.742 437.511C545.475 437.653 545.262 437.849 545.105 438.102C544.951 438.351 544.874 438.636 544.874 438.956V443.443H543.785ZM552.038 441.504V440.562L556.193 433.989H556.876V435.447H556.414L553.275 440.415V440.489H558.87V441.504H552.038ZM556.488 443.443V441.218V440.779V433.989H557.578V443.443H556.488Z" fill="white"/>
<path d="M626.364 433.545H627.675L630.297 437.959H630.408L633.03 433.545H634.342L630.925 439.104V443H629.78V439.104L626.364 433.545ZM637.645 443.148C636.961 443.148 636.372 442.997 635.876 442.695C635.384 442.391 635.004 441.966 634.736 441.421C634.472 440.873 634.339 440.236 634.339 439.51C634.339 438.784 634.472 438.143 634.736 437.589C635.004 437.032 635.376 436.598 635.853 436.288C636.334 435.974 636.894 435.817 637.534 435.817C637.903 435.817 638.268 435.878 638.628 436.001C638.988 436.125 639.316 436.325 639.611 436.602C639.907 436.875 640.142 437.239 640.318 437.691C640.493 438.143 640.581 438.701 640.581 439.362V439.824H635.115V438.882H639.473C639.473 438.482 639.393 438.125 639.233 437.811C639.076 437.497 638.851 437.249 638.559 437.068C638.269 436.886 637.928 436.795 637.534 436.795C637.1 436.795 636.724 436.903 636.407 437.119C636.093 437.331 635.852 437.608 635.683 437.95C635.513 438.291 635.429 438.657 635.429 439.048V439.676C635.429 440.212 635.521 440.666 635.706 441.038C635.893 441.407 636.153 441.689 636.486 441.883C636.818 442.074 637.205 442.169 637.645 442.169C637.931 442.169 638.189 442.129 638.42 442.049C638.654 441.966 638.856 441.843 639.025 441.68C639.194 441.513 639.325 441.307 639.417 441.061L640.47 441.357C640.359 441.714 640.173 442.027 639.911 442.298C639.65 442.566 639.327 442.775 638.942 442.926C638.557 443.074 638.125 443.148 637.645 443.148ZM644.325 443.166C643.875 443.166 643.468 443.082 643.101 442.912C642.735 442.74 642.444 442.492 642.229 442.169C642.013 441.843 641.906 441.449 641.906 440.987C641.906 440.581 641.986 440.252 642.146 439.999C642.306 439.744 642.52 439.544 642.787 439.399C643.055 439.254 643.351 439.147 643.674 439.076C644 439.002 644.328 438.944 644.657 438.901C645.088 438.845 645.437 438.804 645.705 438.776C645.976 438.745 646.173 438.694 646.296 438.624C646.422 438.553 646.485 438.43 646.485 438.254V438.217C646.485 437.762 646.361 437.408 646.111 437.156C645.865 436.903 645.491 436.777 644.989 436.777C644.469 436.777 644.062 436.891 643.766 437.119C643.471 437.346 643.263 437.589 643.143 437.848L642.109 437.479C642.293 437.048 642.54 436.712 642.847 436.472C643.158 436.229 643.497 436.06 643.863 435.964C644.232 435.866 644.595 435.817 644.952 435.817C645.18 435.817 645.442 435.844 645.737 435.9C646.036 435.952 646.324 436.061 646.601 436.228C646.881 436.394 647.113 436.645 647.298 436.98C647.482 437.316 647.575 437.765 647.575 438.328V443H646.485V442.04H646.43C646.356 442.194 646.233 442.358 646.06 442.534C645.888 442.709 645.659 442.858 645.373 442.982C645.086 443.105 644.737 443.166 644.325 443.166ZM644.491 442.188C644.922 442.188 645.285 442.103 645.58 441.934C645.879 441.764 646.104 441.546 646.254 441.278C646.408 441.01 646.485 440.729 646.485 440.433V439.436C646.439 439.491 646.337 439.542 646.18 439.588C646.027 439.632 645.848 439.67 645.645 439.704C645.445 439.735 645.249 439.762 645.059 439.787C644.871 439.808 644.719 439.827 644.602 439.842C644.318 439.879 644.054 439.939 643.808 440.022C643.564 440.102 643.368 440.224 643.217 440.387C643.069 440.547 642.995 440.766 642.995 441.043C642.995 441.421 643.135 441.707 643.415 441.901C643.698 442.092 644.057 442.188 644.491 442.188ZM649.563 443V435.909H650.616V436.98H650.69C650.819 436.629 651.053 436.345 651.391 436.126C651.73 435.908 652.111 435.798 652.536 435.798C652.616 435.798 652.716 435.8 652.836 435.803C652.956 435.806 653.047 435.811 653.109 435.817V436.925C653.072 436.915 652.987 436.902 652.855 436.883C652.725 436.862 652.589 436.851 652.444 436.851C652.099 436.851 651.791 436.923 651.521 437.068C651.253 437.209 651.04 437.406 650.884 437.659C650.73 437.908 650.653 438.193 650.653 438.513V443H649.563ZM660.992 443.129C660.451 443.129 659.963 443.022 659.529 442.806C659.095 442.591 658.747 442.295 658.486 441.92C658.224 441.544 658.081 441.116 658.056 440.636H659.164C659.207 441.064 659.401 441.418 659.746 441.698C660.094 441.975 660.509 442.114 660.992 442.114C661.38 442.114 661.725 442.023 662.027 441.841C662.331 441.66 662.57 441.41 662.742 441.093C662.918 440.773 663.005 440.412 663.005 440.009C663.005 439.596 662.914 439.228 662.733 438.905C662.554 438.579 662.308 438.322 661.994 438.134C661.68 437.946 661.322 437.851 660.919 437.848C660.629 437.845 660.332 437.89 660.028 437.982C659.723 438.071 659.472 438.187 659.275 438.328L658.204 438.199L658.777 433.545H663.688V434.561H659.737L659.404 437.349H659.46C659.654 437.196 659.897 437.068 660.189 436.966C660.482 436.865 660.786 436.814 661.103 436.814C661.682 436.814 662.197 436.952 662.65 437.229C663.105 437.503 663.462 437.879 663.721 438.356C663.982 438.833 664.113 439.378 664.113 439.99C664.113 440.593 663.978 441.132 663.707 441.606C663.439 442.077 663.07 442.449 662.599 442.723C662.128 442.994 661.593 443.129 660.992 443.129Z" fill="white"/>
<defs>
<linearGradient id="paint0_linear_1011_19332" x1="221.038" y1="211.533" x2="229.065" y2="231.803" gradientUnits="userSpaceOnUse">
<stop/>
<stop offset="1" stop-color="#772903"/>
</linearGradient>
<linearGradient id="paint1_linear_1011_19332" x1="324.235" y1="172.738" x2="335.43" y2="196.145" gradientUnits="userSpaceOnUse">
<stop/>
<stop offset="1" stop-color="#F50B9A"/>
</linearGradient>
<linearGradient id="paint2_linear_1011_19332" x1="429.783" y1="144.883" x2="441.317" y2="164.814" gradientUnits="userSpaceOnUse">
<stop/>
<stop offset="1" stop-color="#B122E5"/>
</linearGradient>
<linearGradient id="paint3_linear_1011_19332" x1="534.453" y1="72.4616" x2="544.234" y2="91.6851" gradientUnits="userSpaceOnUse">
<stop stop-color="#131313"/>
<stop offset="1" stop-color="#4A00E0"/>
</linearGradient>
<linearGradient id="paint4_linear_1011_19332" x1="640.737" y1="-2.98684" x2="651.625" y2="24.9564" gradientUnits="userSpaceOnUse">
<stop/>
<stop offset="1" stop-color="#4A148C"/>
</linearGradient>
</defs>
</svg>
